Coordinates
version=1
nRows=13
nColumns=40
inDegrees=yes

Units are S.I. units (second, meters, Newtons, ...)
Angles are in degrees.

endheader
time	pelvis_tilt	pelvis_list	pelvis_rotation	pelvis_tx	pelvis_ty	pelvis_tz	hip_flexion_r	hip_adduction_r	hip_rotation_r	knee_angle_r	knee_angle_r_beta	ankle_angle_r	subtalar_angle_r	mtp_angle_r	hip_flexion_l	hip_adduction_l	hip_rotation_l	knee_angle_l	knee_angle_l_beta	ankle_angle_l	subtalar_angle_l	mtp_angle_l	lumbar_extension	lumbar_bending	lumbar_rotation	arm_flex_r	arm_add_r	arm_rot_r	elbow_flex_r	pro_sup_r	wrist_flex_r	wrist_dev_r	arm_flex_l	arm_add_l	arm_rot_l	elbow_flex_l	pro_sup_l	wrist_flex_l	wrist_dev_l
     35.87500000	     -5.38659455	     -4.31640987	    -12.99600934	      0.87899514	      0.93088541	      0.41784764	     26.18892118	     -1.50846855	     -3.87043393	     21.23928703	     21.23928703	      3.53593607	      8.44442975	     -0.12739672	      9.40366626	     -4.35882565	     -9.49523243	     20.04189506	     20.04189506	     16.91502635	    -16.59966726	      4.99886103	     -9.93654710	      7.52190142	      2.60263541	    -15.18947961	    -10.28411090	    -12.16571708	     28.76796328	     46.41633882	      0.00000000	      0.00000000	     41.06987674	    -24.07518100	     -5.74033494	     71.49324390	     47.73135327	      0.00000000	      0.00000000
     35.89921429	     -5.39733207	     -3.90577080	    -13.71541583	      0.87864925	      0.93010493	      0.42264014	     25.35624308	     -1.24775326	     -3.91560157	     17.33341459	     17.33341459	      2.56565660	     11.74588345	      1.99786811	      8.64244159	     -4.17821803	    -10.34788316	     19.39327760	     19.39327760	     17.10600899	    -16.26865627	      4.57805233	     -9.79820720	      7.04896613	      2.77805595	    -14.75164767	    -10.09128332	    -12.16486664	     29.00133145	     46.40754861	      0.00000000	      0.00000000	     42.50181029	    -24.57839289	     -6.08163037	     72.24653818	     47.77969381	      0.00000000	      0.00000000
     35.92342857	     -5.44224137	     -3.41643922	    -14.31859747	      0.87874910	      0.92899575	      0.42737595	     25.32281190	     -1.29771117	     -4.40719386	     15.72597361	     15.72597361	      3.53393322	     14.94731825	      8.13250269	      7.83776089	     -3.91060652	    -11.30253900	     18.50258496	     18.50258496	     16.48405065	    -16.00365685	      2.02338196	     -9.61841431	      6.57689642	      2.62513777	    -14.16217002	     -9.90556965	    -12.41842147	     29.55349038	     46.39597388	      0.00000000	      0.00000000	     43.26792399	    -24.98015890	     -7.41129049	     73.95677698	     47.91272377	      0.00000000	      0.00000000
     35.94764286	     -5.60870583	     -2.97208211	    -14.79211042	      0.87918598	      0.92752616	      0.43247463	     25.50363333	     -1.10531003	     -3.86281673	     14.90497232	     14.90497232	      3.12310560	     15.68579338	      8.52602307	      7.42649513	     -3.71343028	    -11.77432445	     18.20482877	     18.20482877	     16.80341770	    -15.98663388	      1.84761235	     -9.23185199	      6.20680832	      2.69960520	    -13.52795053	     -9.77247998	    -12.39396906	     29.79615311	     46.38824662	      0.00000000	      0.00000000	     44.40878179	    -25.30202087	     -7.61937697	     74.38330572	     47.94252066	      0.00000000	      0.00000000
     35.97185714	     -5.40965540	     -2.64388413	    -15.05769799	      0.88068320	      0.92704023	      0.43759903	     25.02408021	     -1.01130291	     -3.58905747	     14.37204147	     14.37204147	      2.99334882	     16.33535410	      8.75365638	      6.19540408	     -3.48103800	    -12.37848301	     17.20550934	     17.20550934	     17.01367402	    -15.21803267	      1.32577287	     -9.20927255	      5.88599374	      2.70843779	    -13.03928394	     -9.66667938	    -12.40730099	     29.94204715	     46.38503176	      0.00000000	      0.00000000	     45.08542237	    -25.21801425	     -8.06329258	     75.10680331	     47.99051874	      0.00000000	      0.00000000
     35.99607143	     -5.40876850	     -2.35990966	    -15.22898653	      0.88250817	      0.92608442	      0.44294381	     25.10811893	     -0.86953335	     -3.20407609	     15.05166015	     15.05166015	      3.31441754	     16.19202712	      8.09740195	      5.30214070	     -3.36964202	    -12.82623403	     16.48348391	     16.48348391	     17.19053488	    -14.70302545	      0.71145835	     -8.96146901	      5.71053768	      2.70830021	    -12.53096676	     -9.72055013	    -12.46164175	     30.07140873	     46.38602377	      0.00000000	      0.00000000	     45.44111378	    -25.02821629	     -8.63941343	     75.84279838	     48.04494542	      0.00000000	      0.00000000
     36.02028571	     -5.41248698	     -2.19334207	    -15.24502489	      0.88492329	      0.92515688	      0.44848311	     24.94682826	     -0.59790628	     -2.63622813	     15.67578752	     15.67578752	      2.83051246	     15.44064525	      4.14244710	      4.31541949	     -3.40204109	    -13.28964126	     15.62577271	     15.62577271	     16.66785265	    -14.21514465	     -1.65324682	     -8.72603330	      5.68054572	      2.14246253	    -11.67644749	     -9.86864014	    -12.74841059	     29.92395145	     46.41013975	      0.00000000	      0.00000000	     44.77580972	    -24.68697410	    -11.07057081	     77.94115429	     48.23834664	      0.00000000	      0.00000000
     36.04450000	     -5.38049040	     -2.06542284	    -15.11121952	      0.88769153	      0.92444289	      0.45405017	     24.95329478	     -0.41461923	     -2.33178550	     17.04433730	     17.04433730	      3.64247829	     14.58144253	      2.98004987	      3.34010113	     -3.41527542	    -13.33814163	     14.92045186	     14.92045186	     16.90223897	    -13.83656514	     -1.69878894	     -8.46318699	      5.67400084	      2.05441532	    -11.34569673	    -10.10355522	    -12.77465489	     29.91198417	     46.41428549	      0.00000000	      0.00000000	     44.83810544	    -24.41631958	    -11.08948402	     78.21663883	     48.24433708	      0.00000000	      0.00000000
     36.06871429	     -5.43738682	     -2.17900792	    -14.76702215	      0.89076968	      0.92385954	      0.45974703	     24.69853730	     -0.04173705	     -2.34418077	     18.03912332	     18.03912332	      4.52760809	     13.87109722	      2.17475269	      2.53362242	     -3.75755639	    -13.14587446	     14.46870737	     14.46870737	     17.14133275	    -13.51040392	     -1.72482583	     -8.13991876	      5.95383024	      1.85028171	    -11.09949229	    -10.47484832	    -12.83089371	     29.93874504	     46.41965540	      0.00000000	      0.00000000	     44.70323556	    -23.94129811	    -11.04018355	     78.41451485	     48.24323441	      0.00000000	      0.00000000
     36.09292857	     -5.29189296	     -2.05482183	    -14.56936949	      0.89400331	      0.92336531	      0.46588699	     24.63605748	      0.19858775	     -1.66476035	     19.67550443	     19.67550443	      5.54105074	     12.17051373	      0.69211019	      1.35047553	     -3.79047304	    -13.36694720	     13.63134051	     13.63134051	     17.27609617	    -12.80724621	     -1.67226715	     -8.06221490	      5.79124359	      1.92544617	    -11.00763340	    -10.77799695	    -12.91950700	     29.81222455	     46.43140188	      0.00000000	      0.00000000	     44.44757419	    -23.51559798	    -11.39666969	     78.96325793	     48.27398608	      0.00000000	      0.00000000
     36.11714286	     -5.25601333	     -2.27871397	    -14.16538943	      0.89729576	      0.92312468	      0.47214016	     23.99545318	      0.86972659	     -0.96789598	     20.10397180	     20.10397180	      5.39177629	      9.90258488	     -2.84868725	      0.44742277	     -4.34641614	    -13.56519186	     13.25974104	     13.25974104	     17.59259077	    -11.82676642	     -1.53996350	     -7.94044602	      6.02100913	      1.38280297	    -10.48100595	    -11.15053685	    -13.33425895	     29.28917848	     46.47903524	      0.00000000	      0.00000000	     43.47495998	    -23.02163526	    -12.80529364	     80.43649970	     48.38008170	      0.00000000	      0.00000000
     36.14135714	     -5.26585391	     -2.53843900	    -13.66162590	      0.90040586	      0.92293914	      0.47821503	     23.57391321	      1.32234981	     -1.30680298	     20.86299767	     20.86299767	      6.28589713	      9.32442363	     -3.35509165	     -0.29092907	     -4.92735080	    -13.33875138	     13.00155301	     13.00155301	     17.62693066	    -11.56267228	     -1.40010037	     -7.76423451	      6.28780770	      1.19458782	    -10.46948771	    -11.62367961	    -13.41837021	     29.22057768	     46.48881199	      0.00000000	      0.00000000	     43.01760320	    -22.59694689	    -12.63774713	     80.40258423	     48.36475274	      0.00000000	      0.00000000
     36.16557143	     -5.18126429	     -2.80894962	    -13.26522103	      0.90337901	      0.92307896	      0.48465992	     22.99700689	      1.97085110	     -0.91085443	     21.40910266	     21.40910266	      7.02378985	      7.79585527	     -3.80342498	     -1.15958713	     -5.55978468	    -13.51342939	     12.72767268	     12.72767268	     17.91193933	    -10.68580957	     -0.60281326	     -7.74951717	      6.43878758	      1.08765434	    -10.35175763	    -12.01969934	    -13.71821339	     28.78730529	     46.52483397	      0.00000000	      0.00000000	     42.41052316	    -22.24958725	    -12.58700210	     80.68546535	     48.35810417	      0.00000000	      0.00000000
